<?xml version="1.0" encoding="utf-8"?>
<!-- Generator: Adobe Illustrator 23.0.2, SVG Export Plug-In . SVG Version: 6.00 Build 0)  -->
<svg version="1.1" id="Layer_1" xmlns="http://www.w3.org/2000/svg" xmlns:xlink="http://www.w3.org/1999/xlink" x="0px" y="0px"
	 viewBox="0 0 336.76 336.19" style="enable-background:new 0 0 336.76 336.19;" xml:space="preserve">
<style type="text/css">
	.st0{fill:#FFFFFF;}
</style>
<path d="M1.72,184.06c0-9.01,0-18.02,0-27.03c0.14-0.24,0.36-0.46,0.39-0.72c0.76-6.2,1.32-12.43,2.27-18.6
	c2.13-13.84,6.47-27.05,12.23-39.77c7.43-16.38,17.32-31.15,29.61-44.3C57.75,41.32,70.82,30.93,85.5,22.63
	c11.03-6.24,22.64-11.21,34.83-14.76c10.14-2.95,20.44-5.01,30.97-5.95c1.86-0.17,3.7-0.51,5.56-0.77c7.65,0,15.3,0,22.96,0
	c0.33,0.14,0.64,0.36,0.98,0.4c5.21,0.63,10.43,1.15,15.62,1.87c9.53,1.32,18.77,3.84,27.83,7.02
	c15.84,5.56,30.54,13.31,44.03,23.37c14.54,10.85,26.97,23.7,37.32,38.58c8.16,11.74,14.65,24.35,19.49,37.79
	c4.8,13.31,8,26.99,9.13,41.13c0.13,1.67,0.48,3.32,0.73,4.97c0,8.89,0,17.77,0,26.66c-0.12,0.12-0.32,0.23-0.34,0.36
	c-0.64,4.15-1.3,8.3-1.88,12.46c-1.34,9.52-3.79,18.77-6.98,27.8c-6.87,19.51-16.94,37.2-30.44,52.93
	c-8.55,9.96-18.08,18.84-28.69,26.52c-13.76,9.95-28.69,17.62-44.85,22.92c-11.91,3.91-24.05,6.66-36.56,7.7
	c-1.93,0.16-3.84,0.48-5.76,0.73c-7.53,0-15.06,0-22.58,0c-0.25-0.13-0.48-0.34-0.74-0.37c-7.26-1.01-14.58-1.72-21.78-3.05
	c-14.37-2.64-28.06-7.51-41.08-14.1c-19.2-9.72-36.04-22.55-50.22-38.82c-7.01-8.04-13.25-16.62-18.61-25.83
	c-7.02-12.06-12.6-24.76-16.12-38.26c-2.02-7.74-3.4-15.65-5.09-23.48C2.76,188.33,2.23,186.2,1.72,184.06z M40.83,104.14
	c0.1,0.16,0.21,0.33,0.31,0.49c0.46-0.16,0.95-0.27,1.38-0.49c1.6-0.82,3.1-1.89,4.77-2.49c2.66-0.95,5.51-1.39,8.14-2.41
	c5.23-2.04,10.67-2.82,16.18-2.83c7.25-0.01,14.56-0.79,21.7,1.38c2.5,0.76,5.19,0.95,7.68,1.74c3.07,0.98,6.11,2.17,9.02,3.55
	c3.58,1.69,7.07,3.59,10.49,5.58c1.93,1.12,3.61,2.65,5.47,3.9c2.45,1.65,5.12,3.01,7.42,4.84c3.66,2.91,7.11,6.08,10.61,9.19
	c4.01,3.55,8.08,7.05,11.94,10.76c4.13,3.98,8.05,8.18,12.1,12.33c1.4-1.52,2.64-2.99,4.01-4.33c3.52-3.42,7.11-6.78,10.66-10.17
	c2.44-2.33,4.74-4.8,7.31-6.97c4.67-3.96,9.42-7.83,14.28-11.55c2.78-2.13,5.77-4.04,8.8-5.8c4.61-2.68,9.21-5.45,14.07-7.62
	c4.34-1.94,9-3.15,13.55-4.61c5.93-1.91,12.09-2.56,18.25-2.61c4.99-0.04,9.99,0.62,14.98,1.09c1.94,0.18,3.87,0.63,5.77,1.06
	c2.63,0.6,5.27,1.19,7.84,2.01c2.5,0.81,4.91,1.91,7.66,3c-0.29-0.74-0.42-1.2-0.65-1.6c-1.8-3.13-3.6-6.25-5.45-9.35
	c-5.14-8.63-11.39-16.43-18.41-23.56c-4.08-4.14-8.49-7.96-12.92-11.74c-6.68-5.71-13.97-10.56-21.77-14.58
	c-5.86-3.02-11.82-5.96-18-8.24c-6.21-2.29-12.67-4.04-19.15-5.45c-6.91-1.51-13.96-2.47-20.98-3.41c-2.91-0.39-5.92-0.23-8.87-0.13
	c-5.25,0.19-10.5,0.49-15.74,0.82c-2.42,0.15-4.83,0.46-7.24,0.78c-1.32,0.18-2.61,0.53-3.92,0.8c-2.24,0.46-4.48,0.91-6.71,1.36
	c-0.36,0.07-0.74,0.05-1.08,0.17c-1.88,0.65-3.74,1.36-5.62,1.99c-4.1,1.38-8.28,2.54-12.29,4.13c-3.85,1.53-7.56,3.44-11.28,5.28
	c-3.5,1.73-7.02,3.43-10.37,5.42c-3.43,2.04-6.73,4.32-9.94,6.68c-3.56,2.62-7.02,5.38-10.41,8.22c-2.05,1.71-3.92,3.64-5.8,5.55
	c-1.92,1.95-3.79,3.96-5.62,6c-1.77,1.98-3.53,3.97-5.17,6.06c-2.64,3.38-5.25,6.78-7.71,10.28c-1.66,2.37-3.06,4.92-4.54,7.41
	C43.99,98.76,42.42,101.45,40.83,104.14z M168.12,193.48c-0.67,0.54-1.44,1.03-2.06,1.67c-4.35,4.45-8.67,8.95-13.01,13.41
	c-1.15,1.18-2.34,2.33-3.58,3.42c-1.86,1.64-3.78,3.21-5.68,4.81c-3.33,2.8-6.54,5.75-10.03,8.34c-4.16,3.1-8.5,5.97-12.88,8.76
	c-2.32,1.48-4.83,2.68-7.34,3.83c-2.56,1.18-5.18,2.22-7.83,3.19c-3.35,1.23-6.72,2.4-10.12,3.44c-1.48,0.45-3.22,0.22-4.58,0.85
	c-3.74,1.73-7.8,1.48-11.67,1.89c-6.95,0.74-13.95-0.01-20.84-1.31c-1.85-0.35-3.65-0.92-5.47-1.42c-1.66-0.45-3.32-0.93-5.49-1.55
	c10.09,16.47,22.82,29.83,38.02,40.76c22.04,15.85,46.82,24.99,73.81,26.61c59.34,3.56,108.07-29.25,131.56-70.09
	c-1.56,0.66-2.82,1.34-4.17,1.72c-4.25,1.2-8.58,2.13-12.79,3.45c-4.52,1.41-9.18,1.4-13.79,1.7c-3.02,0.2-6.08-0.47-9.13-0.64
	c-6.39-0.36-12.52-1.98-18.52-4.04c-2.97-1.02-5.82-2.43-8.66-3.8c-3.37-1.62-6.77-3.23-9.97-5.15c-2.95-1.78-5.71-3.9-8.46-5.99
	c-3.78-2.88-7.57-5.77-11.18-8.86c-3.42-2.92-6.66-6.05-9.92-9.16c-3.42-3.27-6.77-6.61-10.15-9.92
	C172.18,197.44,170.18,195.48,168.12,193.48z M302.95,172.13c-0.23-2.53-0.22-4.39-0.6-6.17c-0.92-4.3-1.72-8.67-3.15-12.81
	c-0.93-2.71-2.82-5.11-4.39-7.58c-1.34-2.1-2.68-4.23-4.3-6.1c-3.3-3.81-7.44-6.47-12.05-8.55c-6.69-3.02-13.63-4.34-20.93-3.92
	c-4.49,0.26-8.87,1.02-13.18,2.32c-6.87,2.06-13.18,5.24-19.09,9.22c-3.21,2.16-6.32,4.52-9.3,6.99c-3.01,2.5-5.79,5.29-8.72,7.89
	c-2.51,2.23-5.21,4.27-7.62,6.6c-3.11,3.01-6.02,6.23-9.04,9.34c-1.54,1.59-1.5,2.72,0.07,4.22c3.68,3.53,7.31,7.11,11,10.63
	c2.06,1.97,4.22,3.83,6.29,5.78c2.22,2.1,4.37,4.27,6.6,6.36c1.92,1.8,4.33,2.96,6.17,4.93c1.25,1.34,3.02,2.19,4.57,3.23
	c6.64,4.46,13.51,8.37,21.46,10.06c4.7,1,9.32,1.97,14.22,1.38c4.52-0.54,8.88-1.38,13.19-2.92c5.29-1.89,9.79-4.93,13.9-8.6
	c3.71-3.32,6.59-7.32,8.91-11.72c0.43-0.81,0.5-1.98,1.13-2.5c2.18-1.8,2.03-4.47,2.76-6.78c0.61-1.93,1.61-3.71,1.25-6.03
	C301.8,175.54,302.7,173.48,302.95,172.13z M78.41,126.54c-2.52,0.32-4.51,0.61-6.5,0.82c-4.77,0.51-9.3,2-13.58,4.01
	c-5.48,2.57-10.15,6.37-14.02,11.03c-1.91,2.3-3.65,4.81-5.09,7.43c-1.4,2.55-2.35,5.36-3.45,8.06c-0.32,0.79-0.57,1.62-0.76,2.45
	c-0.39,1.72-0.78,3.44-1.07,5.18c-0.32,1.97-0.83,3.98-0.72,5.95c0.17,3.2,0.57,6.43,1.23,9.56c0.83,3.91,1.89,7.78,4.08,11.25
	c2,3.18,3.46,6.78,5.83,9.63c2.38,2.87,5.4,5.34,8.49,7.48c5.35,3.69,11.46,5.41,17.93,6.27c5.16,0.68,10.2,0.37,15.2-0.55
	c8.54-1.56,16.37-4.99,23.59-9.82c2.76-1.85,5.55-3.67,8.15-5.73c4.02-3.17,8.05-6.36,11.78-9.87c5.5-5.18,10.73-10.65,16.08-16
	c1.77-1.77,1.77-2.34-0.07-4.19c-2.97-2.98-6.03-5.87-8.89-8.95c-2.91-3.13-6.25-5.8-9.29-8.79c-2.51-2.47-5.53-4.42-8.09-6.86
	c-4.1-3.9-8.68-7.03-13.55-9.89c-5.2-3.05-10.59-5.5-16.5-6.69C85.45,127.61,81.67,127.09,78.41,126.54z"/>
<path class="st0" d="M40.83,104.14c1.59-2.69,3.16-5.39,4.76-8.06c1.49-2.49,2.88-5.04,4.54-7.41c2.46-3.51,5.08-6.91,7.71-10.28
	c1.63-2.09,3.4-4.09,5.17-6.06c1.83-2.04,3.69-4.05,5.62-6c1.88-1.9,3.75-3.83,5.8-5.55c3.39-2.84,6.85-5.6,10.41-8.22
	c3.21-2.36,6.51-4.64,9.94-6.68c3.35-1.99,6.87-3.69,10.37-5.42c3.72-1.84,7.43-3.75,11.28-5.28c4.01-1.59,8.19-2.75,12.29-4.13
	c1.88-0.63,3.74-1.34,5.62-1.99c0.34-0.12,0.72-0.1,1.08-0.17c2.24-0.45,4.48-0.9,6.71-1.36c1.31-0.27,2.6-0.62,3.92-0.8
	c2.4-0.32,4.82-0.63,7.24-0.78c5.24-0.34,10.49-0.63,15.74-0.82c2.96-0.11,5.96-0.26,8.87,0.13c7.02,0.94,14.06,1.91,20.98,3.41
	c6.48,1.41,12.94,3.16,19.15,5.45c6.17,2.28,12.13,5.22,18,8.24c7.8,4.01,15.09,8.87,21.77,14.58c4.42,3.78,8.84,7.6,12.92,11.74
	c7.03,7.13,13.27,14.93,18.41,23.56c1.85,3.1,3.65,6.23,5.45,9.35c0.23,0.4,0.36,0.87,0.65,1.6c-2.75-1.09-5.15-2.19-7.66-3
	c-2.56-0.83-5.21-1.41-7.84-2.01c-1.91-0.44-3.83-0.88-5.77-1.06c-4.99-0.47-9.99-1.14-14.98-1.09c-6.16,0.05-12.32,0.71-18.25,2.61
	c-4.54,1.46-9.21,2.68-13.55,4.61c-4.86,2.17-9.46,4.94-14.07,7.62c-3.03,1.76-6.02,3.67-8.8,5.8c-4.86,3.72-9.61,7.6-14.28,11.55
	c-2.56,2.17-4.87,4.65-7.31,6.97c-3.55,3.39-7.14,6.75-10.66,10.17c-1.37,1.33-2.61,2.81-4.01,4.33c-4.06-4.15-7.97-8.36-12.1-12.33
	c-3.86-3.71-7.93-7.21-11.94-10.76c-3.5-3.1-6.95-6.28-10.61-9.19c-2.3-1.83-4.97-3.19-7.42-4.84c-1.86-1.25-3.55-2.78-5.47-3.9
	c-3.43-1.99-6.92-3.88-10.49-5.58c-2.92-1.38-5.95-2.57-9.02-3.55c-2.49-0.79-5.17-0.98-7.68-1.74c-7.14-2.17-14.46-1.39-21.7-1.38
	c-5.51,0.01-10.96,0.8-16.18,2.83c-2.63,1.02-5.48,1.46-8.14,2.41c-1.67,0.6-3.18,1.66-4.77,2.49c-0.43,0.22-0.92,0.33-1.38,0.49
	C41.04,104.47,40.94,104.31,40.83,104.14z"/>
<path class="st0" d="M168.12,193.48c2.05,2,4.06,3.96,6.06,5.91c3.38,3.31,6.73,6.66,10.15,9.92c3.26,3.11,6.5,6.24,9.92,9.16
	c3.62,3.08,7.4,5.98,11.18,8.86c2.75,2.09,5.51,4.21,8.46,5.99c3.2,1.92,6.6,3.53,9.97,5.15c2.84,1.37,5.69,2.78,8.66,3.8
	c6,2.07,12.13,3.68,18.52,4.04c3.05,0.17,6.12,0.84,9.13,0.64c4.61-0.3,9.28-0.29,13.79-1.7c4.21-1.32,8.54-2.25,12.79-3.45
	c1.35-0.38,2.6-1.06,4.17-1.72c-23.49,40.84-72.22,73.66-131.56,70.09c-26.99-1.62-51.77-10.76-73.81-26.61
	c-15.21-10.93-27.93-24.29-38.02-40.76c2.17,0.61,3.83,1.1,5.49,1.55c1.82,0.49,3.62,1.07,5.47,1.42
	c6.89,1.31,13.89,2.05,20.84,1.31c3.87-0.41,7.93-0.16,11.67-1.89c1.36-0.63,3.1-0.4,4.58-0.85c3.41-1.05,6.78-2.22,10.12-3.44
	c2.64-0.97,5.27-2.01,7.83-3.19c2.5-1.15,5.02-2.35,7.34-3.83c4.38-2.79,8.71-5.67,12.88-8.76c3.48-2.59,6.7-5.54,10.03-8.34
	c1.9-1.59,3.81-3.17,5.68-4.81c1.24-1.09,2.43-2.24,3.58-3.42c4.35-4.46,8.66-8.95,13.01-13.41
	C166.69,194.51,167.45,194.02,168.12,193.48z"/>
<path class="st0" d="M302.95,172.13c-0.25,1.35-1.14,3.41-0.86,5.29c0.36,2.32-0.64,4.11-1.25,6.03c-0.73,2.3-0.58,4.98-2.76,6.78
	c-0.63,0.52-0.7,1.69-1.13,2.5c-2.32,4.4-5.2,8.4-8.91,11.72c-4.11,3.68-8.61,6.71-13.9,8.6c-4.31,1.54-8.67,2.38-13.19,2.92
	c-4.9,0.59-9.52-0.39-14.22-1.38c-7.96-1.69-14.83-5.6-21.46-10.06c-1.55-1.04-3.33-1.89-4.57-3.23c-1.84-1.97-4.25-3.13-6.17-4.93
	c-2.23-2.09-4.38-4.26-6.6-6.36c-2.07-1.95-4.23-3.82-6.29-5.78c-3.69-3.52-7.32-7.1-11-10.63c-1.57-1.5-1.61-2.63-0.07-4.22
	c3.01-3.11,5.92-6.34,9.04-9.34c2.41-2.33,5.11-4.37,7.62-6.6c2.93-2.6,5.7-5.39,8.72-7.89c2.98-2.47,6.09-4.83,9.3-6.99
	c5.91-3.98,12.22-7.17,19.09-9.22c4.32-1.29,8.69-2.06,13.18-2.32c7.31-0.42,14.24,0.9,20.93,3.92c4.61,2.08,8.75,4.73,12.05,8.55
	c1.62,1.87,2.96,4,4.3,6.1c1.57,2.47,3.45,4.87,4.39,7.58c1.43,4.14,2.23,8.51,3.15,12.81C302.72,167.74,302.72,169.6,302.95,172.13
	z"/>
<path class="st0" d="M78.41,126.54c3.26,0.54,7.04,1.07,10.77,1.82c5.91,1.19,11.29,3.64,16.5,6.69c4.87,2.86,9.45,5.98,13.55,9.89
	c2.56,2.43,5.58,4.38,8.09,6.86c3.04,2.99,6.37,5.66,9.29,8.79c2.86,3.08,5.93,5.97,8.89,8.95c1.84,1.85,1.85,2.41,0.07,4.19
	c-5.35,5.35-10.58,10.81-16.08,16c-3.72,3.51-7.76,6.69-11.78,9.87c-2.6,2.06-5.39,3.88-8.15,5.73c-7.21,4.82-15.05,8.25-23.59,9.82
	c-5,0.92-10.04,1.23-15.2,0.55c-6.48-0.86-12.58-2.58-17.93-6.27c-3.09-2.13-6.11-4.6-8.49-7.48c-2.37-2.85-3.83-6.45-5.83-9.63
	c-2.18-3.47-3.25-7.33-4.08-11.25c-0.66-3.14-1.06-6.36-1.23-9.56c-0.1-1.96,0.4-3.97,0.72-5.95c0.28-1.74,0.67-3.46,1.07-5.18
	c0.19-0.83,0.43-1.66,0.76-2.45c1.11-2.71,2.05-5.51,3.45-8.06c1.44-2.62,3.18-5.12,5.09-7.43c3.87-4.66,8.54-8.45,14.02-11.03
	c4.28-2.01,8.81-3.5,13.58-4.01C73.9,127.16,75.89,126.87,78.41,126.54z"/>
</svg>
